<?xml version="1.0" standalone="no"?>
<!DOCTYPE svg PUBLIC "-//W3C//DTD SVG 20010904//EN"
 "http://www.w3.org/TR/2001/REC-SVG-20010904/DTD/svg10.dtd">
<svg version="1.0" xmlns="http://www.w3.org/2000/svg"
 width="712.000000pt" height="712.000000pt" viewBox="0 0 712.000000 712.000000"
 preserveAspectRatio="xMidYMid meet">
<metadata>
Created by potrace 1.14, written by Peter Selinger 2001-2017
</metadata>
<g transform="translate(0.000000,712.000000) scale(0.100000,-0.100000)"
fill="#000000" stroke="none">
<path d="M3115 6804 c-16 -2 -77 -9 -135 -15 -676 -71 -1340 -405 -1834 -920
-631 -658 -930 -1531 -840 -2448 12 -116 13 -166 6 -169 -31 -10 -144 -109
-180 -157 -94 -128 -126 -318 -73 -440 30 -69 88 -115 184 -148 15 -6 11 -15
-31 -69 -119 -152 -151 -292 -79 -343 37 -26 121 -18 232 21 55 20 107 38 115
40 11 3 25 -21 51 -88 l36 -93 -69 -23 c-133 -43 -205 -116 -235 -237 -14 -56
-14 -74 -4 -122 24 -103 103 -164 298 -228 129 -42 127 -39 134 -197 7 -168
24 -224 89 -289 29 -29 63 -52 86 -58 57 -16 165 -13 239 5 l63 16 109 -109
c116 -117 195 -174 338 -246 435 -217 1062 -255 1797 -107 232 47 437 103 716
196 139 46 255 84 257 84 3 0 5 -6 5 -14 0 -7 16 -45 35 -83 43 -87 112 -153
203 -196 63 -30 74 -32 177 -32 102 0 115 2 175 31 147 70 239 201 248 353 7
119 -19 177 -105 231 l-43 27 138 75 c560 306 1011 646 1300 983 221 257 347
502 398 771 24 129 15 329 -19 444 l-25 84 43 56 c82 106 115 196 115 322 0
86 -22 160 -65 218 l-26 35 46 11 c65 17 93 38 104 82 27 99 -91 285 -242 382
l-55 35 5 70 c11 146 -76 371 -184 481 -115 117 -239 159 -443 151 -69 -2
-133 -8 -142 -12 -13 -5 -20 -2 -24 11 -27 83 -61 147 -145 273 -515 776
-1342 1268 -2269 1351 -106 9 -404 12 -475 4z m375 -134 c731 -47 1352 -320
1868 -824 149 -145 200 -211 87 -110 -442 391 -977 648 -1555 749 -122 21
-136 21 -145 7 -79 -125 -254 -192 -465 -178 -190 12 -317 69 -375 170 -10 17
-16 17 -127 -3 -612 -112 -1171 -400 -1646 -848 -39 -37 -72 -67 -72 -64 0 12
155 183 257 281 505 493 1153 779 1850 819 76 4 143 9 148 9 6 1 84 -3 175 -8z
m422 -495 c51 -33 105 -89 139 -143 32 -51 37 -83 15 -102 -50 -41 -266 155
-266 241 0 46 45 47 112 4z m-402 -335 c84 -86 141 -228 105 -263 -15 -15 -19
-15 -44 -2 -40 20 -106 98 -136 160 -71 144 -25 208 75 105z m-1630 -55 c33
-40 -2 -217 -59 -300 -21 -31 -33 -40 -56 -40 -23 0 -30 5 -37 30 -18 67 31
231 86 290 37 39 48 42 66 20z m484 -77 c11 -16 16 -46 16 -99 0 -171 -90
-317 -131 -212 -16 41 -5 178 19 242 34 88 67 111 96 69z m619 -15 c43 -75 63
-247 34 -303 -18 -36 -56 -33 -78 5 -65 111 -63 343 3 333 12 -2 30 -17 41
-35z m3682 -1135 c-12 -56 -32 -84 -82 -116 -83 -53 -199 -86 -633 -177 -266
-56 -347 -94 -391 -183 l-26 -54 -7 32 c-15 79 -9 103 42 152 60 60 96 71 437
143 397 84 549 134 620 203 39 39 48 39 40 0z m-1083 -828 c0 -77 -5 -110 -27
-178 -59 -177 -133 -241 -295 -258 l-55 -5 52 19 c64 23 125 65 164 111 71 85
138 276 140 395 0 52 2 57 11 36 5 -14 10 -68 10 -120z m1307 -101 c-19 -83
-78 -171 -156 -230 -43 -34 -272 -159 -289 -159 -11 0 20 44 54 78 21 20 103
87 184 149 85 66 160 131 179 158 18 25 33 45 35 45 1 0 -2 -18 -7 -41z
m-2280 -340 c-28 -28 -49 -81 -49 -121 0 -18 12 -78 26 -133 63 -247 31 -447
-94 -586 -47 -52 -165 -119 -211 -119 -26 0 -26 0 7 20 85 52 161 162 202 295
32 102 38 279 15 429 -19 129 -15 173 18 203 26 25 43 31 80 32 l27 1 -21 -21z
m1738 -616 c-36 -70 -92 -90 -286 -103 -522 -37 -578 -64 -861 -431 -111 -143
-193 -230 -240 -254 -21 -11 -10 4 38 52 37 38 126 149 197 248 274 378 343
416 812 445 176 11 265 27 318 59 16 10 31 17 33 15 2 -1 -3 -15 -11 -31z
m-3207 -140 c0 -5 -19 -21 -41 -37 -22 -15 -74 -70 -114 -121 -88 -110 -148
-164 -230 -205 -65 -32 -161 -60 -209 -60 -29 0 -28 1 20 31 84 53 133 99 209
193 105 131 146 166 227 191 47 15 138 20 138 8z m1366 -490 c0 -213 10 -278
60 -417 14 -39 37 -100 50 -136 29 -80 32 -168 7 -199 -10 -11 -33 -24 -52
-27 -32 -7 -33 -6 -25 17 15 40 10 161 -8 199 -90 192 -113 289 -105 454 5
118 31 240 60 286 6 11 12 20 12 20 0 0 1 -89 1 -197z m-452 -65 c45 -41 43
-66 -14 -151 -62 -93 -169 -193 -245 -231 -64 -31 -145 -43 -220 -31 -52 7
-50 16 10 35 121 38 193 102 248 220 48 103 70 136 111 161 41 25 79 24 110
-3z m1018 -1156 c10 -9 20 -31 24 -48 6 -29 2 -35 -46 -73 -28 -23 -56 -41
-60 -41 -5 0 -4 16 2 36 5 20 8 63 6 96 l-3 60 30 -6 c16 -4 38 -14 47 -24z"/>
</g>
</svg>
